<svg xmlns="http://www.w3.org/2000/svg" fill="none" viewBox="0 0 15 11">
  <path d="M.257 3.841h11.022v1.536c0 .07.025.13.076.18.05.051.11.077.18.077a.249.249 0 00.184-.072L14.283 3a.25.25 0 00.072-.184.25.25 0 00-.072-.184L11.727.08a.301.301 0 00-.192-.08.25.25 0 00-.184.072.25.25 0 00-.072.184v1.536H.257c-.07 0-.13.026-.18.076a.246.246 0 00-.077.18v1.537c0 .07.026.13.077.18.05.05.11.076.18.076z" fill="url(#njbDBz_oKRa)"/>
  <path d="M14.098 6.914H3.076V5.378c0-.07-.026-.13-.076-.18a.246.246 0 00-.18-.077.25.25 0 00-.185.072L.072 7.754A.25.25 0 000 7.938c0 .07.024.128.072.176l2.555 2.56a.3.3 0 00.193.08c.069 0 .13-.025.18-.075.05-.05.076-.11.076-.18V8.962h11.022c.07 0 .13-.025.18-.076a.243.243 0 00.076-.18V7.17c0-.07-.025-.13-.076-.18a.247.247 0 00-.18-.076z" fill="url(#njbDBz_oKRb)"/>
  <defs>
    <linearGradient id="njbDBz_oKRa" x1="7.895" y1="-.887" x2="8.02" y2="9.101" gradientUnits="userSpaceOnUse">
      <stop stop-color="#FD749B"/>
      <stop offset="1" stop-color="#281AC8"/>
    </linearGradient>
    <linearGradient id="njbDBz_oKRb" x1="7.895" y1="4.235" x2="8.02" y2="14.223" gradientUnits="userSpaceOnUse">
      <stop stop-color="#FD749B"/>
      <stop offset="1" stop-color="#281AC8"/>
    </linearGradient>
  </defs>
</svg>
