<svg xmlns="http://www.w3.org/2000/svg" fill="none" viewBox="0 0 10 14">
  <path d="M8.183 6.411a2.19 2.19 0 001.086-2.264c-.185-1.4-1.857-1.93-3.176-2.04V0h-1.3v2.088H3.92V0h-1.3v2.088H0v1.345h.975c.437 0 .65.13.65.483v5.78c0 .482-.241.631-.501.631H.13V11.7h2.526v2.134h1.31V11.7h.873v2.134h1.272V11.7h.28c2.674 0 3.566-1.308 3.566-3.09a2.31 2.31 0 00-1.774-2.199zM3.92 3.517h.928c.65 0 1.932.11 1.932 1.169a1.309 1.309 0 01-1.142 1.382H3.92V3.517zm1.44 6.68v-.01H3.92V7.405h1.67c.39 0 1.858.13 1.858 1.17 0 1.039-.697 1.623-2.09 1.623z" fill="url(#rg5vk_sdLa)"/>
  <defs>
    <linearGradient id="rg5vk_sdLa" x1="5.476" y1="-2.178" x2="6.56" y2="22.306" gradientUnits="userSpaceOnUse">
      <stop stop-color="#FD749B"/>
      <stop offset="1" stop-color="#281AC8"/>
    </linearGradient>
  </defs>
</svg>
