<svg xmlns="http://www.w3.org/2000/svg" fill="none" viewBox="0 0 12 17">
  <path d="M9.206 7.48c.902-.527 1.39-1.583 1.222-2.641-.209-1.635-2.09-2.252-3.573-2.382V0H5.392v2.436h-.983V0H2.947v2.436H0v1.57h1.097c.491 0 .732.15.732.562v6.744c0 .563-.272.736-.565.736H.146v1.602h2.842v2.49h1.474v-2.49h.982v2.49h1.431v-2.49h.314c3.01 0 4.012-1.526 4.012-3.604-.024-1.226-.844-2.28-1.995-2.566zM4.409 4.103h1.045c.732 0 2.174.13 2.174 1.364.05.805-.513 1.51-1.286 1.613H4.41V4.103zm1.62 7.794v-.011h-1.62V8.638H6.29c.44 0 2.09.152 2.09 1.364 0 1.213-.784 1.895-2.351 1.895z" fill="url(#E0CujOC9Aa)"/>
  <defs>
    <linearGradient id="E0CujOC9Aa" x1="6.161" y1="-2.541" x2="7.471" y2="26.02" gradientUnits="userSpaceOnUse">
      <stop stop-color="#FD749B"/>
      <stop offset="1" stop-color="#281AC8"/>
    </linearGradient>
  </defs>
</svg>
