<svg xmlns="http://www.w3.org/2000/svg" fill="none" viewBox="0 0 25 34">
  <path d="M19.775 15.494a5.292 5.292 0 002.626-5.47c-.449-3.387-4.49-4.665-7.676-4.934V0h-3.143v5.045h-2.11V0H6.33v5.045H0v3.252h2.357c1.055 0 1.571.314 1.571 1.166v13.97c0 1.165-.584 1.524-1.212 1.524H.314v3.319H6.42v5.157h3.164v-5.157h2.11v5.157h3.075v-5.157h.674c6.464 0 8.619-3.162 8.619-7.467a5.584 5.584 0 00-4.287-5.315zM9.472 8.498h2.245c1.57 0 4.668.27 4.668 2.826a3.164 3.164 0 01-2.76 3.34H9.472V8.499zm3.48 16.145v-.022h-3.48v-6.727h4.04c.943 0 4.49.314 4.49 2.825s-1.684 3.924-5.05 3.924z" fill="url(#B5VFVk_88pa)"/>
  <defs>
    <linearGradient id="B5VFVk_88pa" x1="13.234" y1="-5.263" x2="15.852" y2="53.907" gradientUnits="userSpaceOnUse">
      <stop stop-color="#FD749B"/>
      <stop offset="1" stop-color="#281AC8"/>
    </linearGradient>
  </defs>
</svg>
