<svg xmlns="http://www.w3.org/2000/svg" fill="none" viewBox="0 0 77 12">
  <path d="M5.414 10.059l-2.2.899c-.5.2-1.1 0-1.3-.5-.1-.2-.1-.3-.1-.5l.2-2.397c0-.3-.1-.5-.2-.7l-1.6-1.797c-.3-.4-.3-1.1.1-1.399.2-.1.3-.2.5-.2l2.3-.5c.3-.1.5-.199.6-.499l1.2-1.998c.3-.5.9-.6 1.4-.3.1.1.3.2.3.3l1.2 1.998c.1.2.4.4.6.5l2.4.5c.5.1.9.699.7 1.198 0 .2-.1.3-.2.4l-1.5 1.798c-.2.2-.3.5-.2.7l.2 2.397c0 .6-.4.999-.9 1.099-.2 0-.3 0-.5-.1l-2.2-.9c-.3-.1-.5-.1-.8 0z" fill="url(#GXtvHoIBKOa)"/>
  <path d="M21.73 10.059l-2.2.899c-.5.2-1.1 0-1.3-.5-.1-.2-.1-.3-.1-.5l.2-2.397c0-.3-.1-.5-.2-.7l-1.6-1.797c-.3-.4-.3-1.1.1-1.399.2-.1.3-.2.5-.2l2.3-.5c.3-.1.5-.199.6-.499l1.2-1.998c.3-.5.9-.6 1.4-.3.1.1.3.2.3.3l1.2 1.998c.1.2.4.4.6.5l2.4.5c.5.1.9.699.7 1.198 0 .2-.1.3-.2.4l-1.5 1.798c-.2.2-.3.5-.2.7l.2 2.397c0 .6-.4.999-.9 1.099-.2 0-.3 0-.5-.1l-2.2-.9c-.3-.1-.5-.1-.8 0z" fill="url(#GXtvHoIBKOb)"/>
  <path d="M38.047 10.059l-2.2.899c-.5.2-1.1 0-1.3-.5-.1-.2-.1-.3-.1-.5l.2-2.397c0-.3-.1-.5-.2-.7l-1.6-1.797c-.3-.4-.3-1.1.1-1.399.2-.1.3-.2.5-.2l2.3-.5c.3-.1.5-.199.6-.499l1.2-1.998c.3-.5.9-.6 1.4-.3.1.1.3.2.3.3l1.2 1.998c.1.2.4.4.6.5l2.4.5c.5.1.9.699.7 1.198 0 .2-.1.3-.2.4l-1.5 1.798c-.2.2-.3.5-.2.7l.2 2.397c0 .6-.4.999-.9 1.099-.2 0-.3 0-.5-.1l-2.2-.9c-.3-.1-.5-.1-.8 0z" fill="url(#GXtvHoIBKOc)"/>
  <path d="M54.363 10.059l-2.2.899c-.5.2-1.1 0-1.3-.5-.1-.2-.1-.3-.1-.5l.2-2.397c0-.3-.1-.5-.2-.7l-1.6-1.797c-.3-.4-.3-1.1.1-1.399.2-.1.3-.2.5-.2l2.3-.5c.3-.1.5-.199.6-.499l1.2-1.998c.3-.5.9-.6 1.4-.3.1.1.3.2.3.3l1.2 1.998c.1.2.4.4.6.5l2.4.5c.5.1.9.699.7 1.198 0 .2-.1.3-.2.4l-1.5 1.798c-.2.2-.3.5-.2.7l.2 2.397c0 .6-.4.999-.9 1.099-.2 0-.3 0-.5-.1l-2.2-.9c-.3-.1-.5-.1-.8 0z" fill="url(#GXtvHoIBKOd)"/>
  <path d="M70.68 10.059l-2.2.899c-.5.2-1.1 0-1.3-.5-.1-.2-.1-.3-.1-.5l.2-2.397c0-.3-.1-.5-.2-.7l-1.6-1.797c-.3-.4-.3-1.1.1-1.399.2-.1.3-.2.5-.2l2.3-.5c.3-.1.5-.199.6-.499l1.2-1.998c.3-.5.9-.6 1.4-.3.1.1.3.2.3.3l1.2 1.998c.1.2.4.4.6.5l2.4.5c.5.1.9.699.7 1.198 0 .2-.1.3-.2.4l-1.5 1.798c-.2.2-.3.5-.2.7l.2 2.397c0 .6-.4.999-.9 1.099-.2 0-.3 0-.5-.1l-2.2-.9c-.3-.1-.5-.1-.8 0z" fill="url(#GXtvHoIBKOe)"/>
  <defs>
    <linearGradient id="GXtvHoIBKOa" x1="6.362" y1="-1.741" x2="6.958" y2="17.849" gradientUnits="userSpaceOnUse">
      <stop stop-color="#FD749B"/>
      <stop offset="1" stop-color="#281AC8"/>
    </linearGradient>
    <linearGradient id="GXtvHoIBKOb" x1="22.678" y1="-1.741" x2="23.274" y2="17.849" gradientUnits="userSpaceOnUse">
      <stop stop-color="#FD749B"/>
      <stop offset="1" stop-color="#281AC8"/>
    </linearGradient>
    <linearGradient id="GXtvHoIBKOc" x1="38.994" y1="-1.741" x2="39.591" y2="17.849" gradientUnits="userSpaceOnUse">
      <stop stop-color="#FD749B"/>
      <stop offset="1" stop-color="#281AC8"/>
    </linearGradient>
    <linearGradient id="GXtvHoIBKOd" x1="55.311" y1="-1.741" x2="55.907" y2="17.849" gradientUnits="userSpaceOnUse">
      <stop stop-color="#FD749B"/>
      <stop offset="1" stop-color="#281AC8"/>
    </linearGradient>
    <linearGradient id="GXtvHoIBKOe" x1="71.627" y1="-1.741" x2="72.224" y2="17.849" gradientUnits="userSpaceOnUse">
      <stop stop-color="#FD749B"/>
      <stop offset="1" stop-color="#281AC8"/>
    </linearGradient>
  </defs>
</svg>
